<svg viewBox="0 0 1496 400" xmlns="http://www.w3.org/2000/svg"><g><g><g><g><g><line x1="50" y1="378" x2="45" y2="378" style="visibility: inherit;" fill="rgb(0, 0, 0)" stroke="rgb(204, 204, 204)" stroke-width="1px"></line><line x1="50" y1="346.5" x2="45" y2="346.5" style="visibility: inherit;" fill="rgb(0, 0, 0)" stroke="rgb(204, 204, 204)" stroke-width="1px"></line><line x1="50" y1="315" x2="45" y2="315" style="visibility: inherit;" fill="rgb(0, 0, 0)" stroke="rgb(204, 204, 204)" stroke-width="1px"></line><line x1="50" y1="283.5" x2="45" y2="283.5" style="visibility: inherit;" fill="rgb(0, 0, 0)" stroke="rgb(204, 204, 204)" stroke-width="1px"></line><line x1="50" y1="252" x2="45" y2="252" style="visibility: inherit;" fill="rgb(0, 0, 0)" stroke="rgb(204, 204, 204)" stroke-width="1px"></line><line x1="50" y1="220.5" x2="45" y2="220.5" style="visibility: inherit;" fill="rgb(0, 0, 0)" stroke="rgb(204, 204, 204)" stroke-width="1px"></line><line x1="50" y1="189.00000000000003" x2="45" y2="189.00000000000003" style="visibility: inherit;" fill="rgb(0, 0, 0)" stroke="rgb(204, 204, 204)" stroke-width="1px"></line><line x1="50" y1="157.50000000000003" x2="45" y2="157.50000000000003" style="visibility: inherit;" fill="rgb(0, 0, 0)" stroke="rgb(204, 204, 204)" stroke-width="1px"></line><line x1="50" y1="126.00000000000006" x2="45" y2="126.00000000000006" style="visibility: inherit;" fill="rgb(0, 0, 0)" stroke="rgb(204, 204, 204)" stroke-width="1px"></line><line x1="50" y1="94.50000000000006" x2="45" y2="94.50000000000006" style="visibility: inherit;" fill="rgb(0, 0, 0)" stroke="rgb(204, 204, 204)" stroke-width="1px"></line><line x1="50" y1="63" x2="45" y2="63" style="visibility: inherit;" fill="rgb(0, 0, 0)" stroke="rgb(204, 204, 204)" stroke-width="1px"></line><line x1="50" y1="31.5" x2="45" y2="31.5" style="visibility: inherit;" fill="rgb(0, 0, 0)" stroke="rgb(204, 204, 204)" stroke-width="1px"></line><line x1="50" y1="0" x2="45" y2="0" style="visibility: inherit;" fill="rgb(0, 0, 0)" stroke="rgb(204, 204, 204)" stroke-width="1px"></line></g><g transform="translate(40, 0)"><text x="0" y="378" dx="0em" dy="0.3em" style="text-anchor: end; visibility: hidden; font-family: &quot;Helvetica Neue&quot;, sans-serif; font-size: 12px; font-weight: 200;" fill="rgb(50, 49, 63)" stroke="none" stroke-width="1px">-0.1</text><text x="0" y="346.5" dx="0em" dy="0.3em" style="text-anchor: end; visibility: inherit; font-family: &quot;Helvetica Neue&quot;, sans-serif; font-size: 12px; font-weight: 200;" fill="rgb(50, 49, 63)" stroke="none" stroke-width="1px">0</text><text x="0" y="315" dx="0em" dy="0.3em" style="text-anchor: end; visibility: inherit; font-family: &quot;Helvetica Neue&quot;, sans-serif; font-size: 12px; font-weight: 200;" fill="rgb(50, 49, 63)" stroke="none" stroke-width="1px">0.1</text><text x="0" y="283.5" dx="0em" dy="0.3em" style="text-anchor: end; visibility: inherit; font-family: &quot;Helvetica Neue&quot;, sans-serif; font-size: 12px; font-weight: 200;" fill="rgb(50, 49, 63)" stroke="none" stroke-width="1px">0.2</text><text x="0" y="252" dx="0em" dy="0.3em" style="text-anchor: end; visibility: inherit; font-family: &quot;Helvetica Neue&quot;, sans-serif; font-size: 12px; font-weight: 200;" fill="rgb(50, 49, 63)" stroke="none" stroke-width="1px">0.3</text><text x="0" y="220.5" dx="0em" dy="0.3em" style="text-anchor: end; visibility: inherit; font-family: &quot;Helvetica Neue&quot;, sans-serif; font-size: 12px; font-weight: 200;" fill="rgb(50, 49, 63)" stroke="none" stroke-width="1px">0.4</text><text x="0" y="189.00000000000003" dx="0em" dy="0.3em" style="text-anchor: end; visibility: inherit; font-family: &quot;Helvetica Neue&quot;, sans-serif; font-size: 12px; font-weight: 200;" fill="rgb(50, 49, 63)" stroke="none" stroke-width="1px">0.5</text><text x="0" y="157.50000000000003" dx="0em" dy="0.3em" style="text-anchor: end; visibility: inherit; font-family: &quot;Helvetica Neue&quot;, sans-serif; font-size: 12px; font-weight: 200;" fill="rgb(50, 49, 63)" stroke="none" stroke-width="1px">0.6</text><text x="0" y="126.00000000000006" dx="0em" dy="0.3em" style="text-anchor: end; visibility: inherit; font-family: &quot;Helvetica Neue&quot;, sans-serif; font-size: 12px; font-weight: 200;" fill="rgb(50, 49, 63)" stroke="none" stroke-width="1px">0.7</text><text x="0" y="94.50000000000006" dx="0em" dy="0.3em" style="text-anchor: end; visibility: inherit; font-family: &quot;Helvetica Neue&quot;, sans-serif; font-size: 12px; font-weight: 200;" fill="rgb(50, 49, 63)" stroke="none" stroke-width="1px">0.8</text><text x="0" y="63" dx="0em" dy="0.3em" style="text-anchor: end; visibility: inherit; font-family: &quot;Helvetica Neue&quot;, sans-serif; font-size: 12px; font-weight: 200;" fill="rgb(50, 49, 63)" stroke="none" stroke-width="1px">0.9</text><text x="0" y="31.5" dx="0em" dy="0.3em" style="text-anchor: end; visibility: inherit; font-family: &quot;Helvetica Neue&quot;, sans-serif; font-size: 12px; font-weight: 200;" fill="rgb(50, 49, 63)" stroke="none" stroke-width="1px">1</text><text x="0" y="0" dx="0em" dy="0.3em" style="text-anchor: end; visibility: hidden; font-family: &quot;Helvetica Neue&quot;, sans-serif; font-size: 12px; font-weight: 200;" fill="rgb(50, 49, 63)" stroke="none" stroke-width="1px">1.1</text></g><line x1="50" y1="0" x2="50" y2="378" fill="rgb(0, 0, 0)" stroke="rgb(204, 204, 204)" stroke-width="1px"></line></g></g><g transform="translate(50, 0)" clip-path="url(#clip_0)"><clipPath id="clip_0"><rect width="1446" height="378"></rect></clipPath><g><g><g><line x1="0" y1="0" x2="0" y2="378" fill="rgb(0, 0, 0)" stroke="rgb(60, 60, 60)" stroke-width="1px" opacity="0.25"></line><line x1="120.5" y1="0" x2="120.5" y2="378" fill="rgb(0, 0, 0)" stroke="rgb(60, 60, 60)" stroke-width="1px" opacity="0.25"></line><line x1="241" y1="0" x2="241" y2="378" fill="rgb(0, 0, 0)" stroke="rgb(60, 60, 60)" stroke-width="1px" opacity="0.25"></line><line x1="361.5" y1="0" x2="361.5" y2="378" fill="rgb(0, 0, 0)" stroke="rgb(60, 60, 60)" stroke-width="1px" opacity="0.25"></line><line x1="482" y1="0" x2="482" y2="378" fill="rgb(0, 0, 0)" stroke="rgb(60, 60, 60)" stroke-width="1px" opacity="0.25"></line><line x1="602.5" y1="0" x2="602.5" y2="378" fill="rgb(0, 0, 0)" stroke="rgb(60, 60, 60)" stroke-width="1px" opacity="0.25"></line><line x1="723" y1="0" x2="723" y2="378" fill="rgb(0, 0, 0)" stroke="rgb(60, 60, 60)" stroke-width="1px" opacity="0.25"></line><line x1="843.5" y1="0" x2="843.5" y2="378" fill="rgb(0, 0, 0)" stroke="rgb(60, 60, 60)" stroke-width="1px" opacity="0.25"></line><line x1="964" y1="0" x2="964" y2="378" fill="rgb(0, 0, 0)" stroke="rgb(60, 60, 60)" stroke-width="1px" opacity="0.25"></line><line x1="1084.5" y1="0" x2="1084.5" y2="378" fill="rgb(0, 0, 0)" stroke="rgb(60, 60, 60)" stroke-width="1px" opacity="0.25"></line><line x1="1205" y1="0" x2="1205" y2="378" fill="rgb(0, 0, 0)" stroke="rgb(60, 60, 60)" stroke-width="1px" opacity="0.25"></line><line x1="1325.5" y1="0" x2="1325.5" y2="378" fill="rgb(0, 0, 0)" stroke="rgb(60, 60, 60)" stroke-width="1px" opacity="0.25"></line><line x1="1446" y1="0" x2="1446" y2="378" fill="rgb(0, 0, 0)" stroke="rgb(60, 60, 60)" stroke-width="1px" opacity="0.25"></line></g><g><line x1="0" y1="378" x2="1446" y2="378" fill="rgb(0, 0, 0)" stroke="rgb(60, 60, 60)" stroke-width="1px" opacity="0.25"></line><line x1="0" y1="346.5" x2="1446" y2="346.5" fill="rgb(0, 0, 0)" stroke="rgb(60, 60, 60)" stroke-width="1px" opacity="0.25"></line><line x1="0" y1="315" x2="1446" y2="315" fill="rgb(0, 0, 0)" stroke="rgb(60, 60, 60)" stroke-width="1px" opacity="0.25"></line><line x1="0" y1="283.5" x2="1446" y2="283.5" fill="rgb(0, 0, 0)" stroke="rgb(60, 60, 60)" stroke-width="1px" opacity="0.25"></line><line x1="0" y1="252" x2="1446" y2="252" fill="rgb(0, 0, 0)" stroke="rgb(60, 60, 60)" stroke-width="1px" opacity="0.25"></line><line x1="0" y1="220.5" x2="1446" y2="220.5" fill="rgb(0, 0, 0)" stroke="rgb(60, 60, 60)" stroke-width="1px" opacity="0.25"></line><line x1="0" y1="189.00000000000003" x2="1446" y2="189.00000000000003" fill="rgb(0, 0, 0)" stroke="rgb(60, 60, 60)" stroke-width="1px" opacity="0.25"></line><line x1="0" y1="157.50000000000003" x2="1446" y2="157.50000000000003" fill="rgb(0, 0, 0)" stroke="rgb(60, 60, 60)" stroke-width="1px" opacity="0.25"></line><line x1="0" y1="126.00000000000006" x2="1446" y2="126.00000000000006" fill="rgb(0, 0, 0)" stroke="rgb(60, 60, 60)" stroke-width="1px" opacity="0.25"></line><line x1="0" y1="94.50000000000006" x2="1446" y2="94.50000000000006" fill="rgb(0, 0, 0)" stroke="rgb(60, 60, 60)" stroke-width="1px" opacity="0.25"></line><line x1="0" y1="63" x2="1446" y2="63" fill="rgb(0, 0, 0)" stroke="rgb(60, 60, 60)" stroke-width="1px" opacity="0.25"></line><line x1="0" y1="31.5" x2="1446" y2="31.5" fill="rgb(0, 0, 0)" stroke="rgb(60, 60, 60)" stroke-width="1px" opacity="0.25"></line><line x1="0" y1="0" x2="1446" y2="0" fill="rgb(0, 0, 0)" stroke="rgb(60, 60, 60)" stroke-width="1px" opacity="0.25"></line></g></g></g><g><g><line x1="0" y1="346.5" x2="1446" y2="346.5" fill="rgb(0, 0, 0)" stroke="rgb(153, 153, 153)" stroke-width="1.5px"></line></g></g><g><g><line x1="120.5" y1="0" x2="120.5" y2="378" fill="rgb(0, 0, 0)" stroke="rgb(153, 153, 153)" stroke-width="1.5px"></line></g></g><g><g><g><g><g><path stroke="rgb(238, 51, 119)" stroke-width="2px" d="M120.5,49.98419934511185L132.54999999999998,50.085004806518555L144.6,50.19840860366821L156.65,50.62680834531784L168.7,50.94180428981781L180.75,51.19380855560303L192.8,49.9967976808548L204.85,50.68980002403259L216.9,50.31179362535477L228.95,50.223605275154114L241,49.908609330654144L253.04999999999998,50.52600288391113L265.09999999999997,50.727595031261444L277.15000000000003,50.0471910238266L289.2,50.32439196109772L301.25,50.37480407953262L313.3,49.88339388370514L325.35,50.110201478004456L337.4,49.84559887647629L349.45,49.50540626049042L361.5,49.80780386924744L373.55,50.19840860366821L385.6,49.45499414205551L397.65000000000003,50.236203610897064L409.7,49.98419934511185L421.75,49.54320126771927L433.8,49.24080365896225L445.85,48.97620105743408L457.9,50.601592898368835L469.95,49.65660506486893L482,49.39200246334076L494.05,48.97620105743408L506.09999999999997,48.79980558156967L518.15,48.92580771446228L530.1999999999999,49.3289920091629L542.25,49.54320126771927L554.3000000000001,49.08960485458374L566.35,49.41719913482666L578.4,48.396602511405945L590.45,49.3289920091629L602.5,48.29579704999924L614.55,49.61879128217697L626.6,48.887993931770325L638.65,48.887993931770325L650.7,48.724196791648865L662.75,48.61079299449921L674.8,48.34620916843414L686.85,48.44699585437775L698.9,49.49280792474747L710.9499999999999,48.03119444847107L723,48.900592267513275L735.05,47.7161985039711L747.1,48.081606566905975L759.15,48.409200847148895L771.2,48.069008231163025L783.25,48.862797260284424L795.3000000000001,48.207608699798584L807.35,48.749393463134766L819.4,47.80440562963486L831.4499999999999,47.70360016822815L843.5,47.98080110549927L855.55,47.7665918469429L867.6,47.035794496536255L879.65,47.38860422372818L891.7,47.42639923095703L903.75,47.79180729389191L915.8,47.53980302810669L927.85,47.96820276975632L939.9,48.4595941901207L951.95,47.338192105293274L964,47.7665918469429L976.0500000000001,47.21220874786377L988.1,46.59479641914368L1000.15,47.28779876232147L1012.1999999999999,47.27520042657852L1024.25,47.26260209083557L1036.3,46.59479641914368L1048.35,46.75859355926514L1060.3999999999999,47.21220874786377L1072.45,47.72879683971405L1084.5,47.14919829368597L1096.55,46.871997356414795L1108.6000000000001,46.834202349185944L1120.65,47.30039709806442L1132.7,47.02319616079336L1144.75,46.720798552036285L1156.8,46.02779620885855L1168.85,46.607394754886684L1180.9,47.06099116802221L1192.95,45.88919574022293L1205,46.40580260753637L1217.05,46.745995223522186L1229.1,46.745995223522186L1241.1499999999999,45.952206194400844L1253.2,47.42639923095703L1265.25,46.443597614765224L1277.3,46.63259142637253L1289.3500000000001,45.90179407596594L1301.4,46.53180474042898L1313.45,45.62459313869476" style="fill: none;" fill="none"></path></g><g><path stroke="rgb(187, 187, 187)" stroke-width="2px" d="M120.5,63.80639487504965L132.54999999999998,62.294406831264496L144.6,62.3951935172081L156.65,62.09279590845108L168.7,61.58880615234375L180.75,61.77779996395111L192.8,60.20280146598816L204.85,60.53039574623108L216.9,59.97599387168884L228.95,59.2956086397171L241,58.77900177240372L253.04999999999998,58.867208898067474L265.09999999999997,59.2703931927681L277.15000000000003,59.320805311203L289.2,58.4514074921608L301.25,58.03560608625412L313.3,58.33800369501114L325.35,58.56479251384735L337.4,57.544195890426636L349.45,57.45600754022598L361.5,58.36320036649704L373.55,57.09059947729111L385.6,57.342603743076324L397.65000000000003,56.58659094572067L409.7,56.284193336963654L421.75,56.77560353279114L433.8,57.317407071590424L445.85,56.05740451812744L457.9,55.4273938536644L469.95,56.41019546985626L482,57.15359115600586L494.05,55.91880404949188L506.09999999999997,54.78480362892151L518.15,55.43999218940735L530.1999999999999,55.364402174949646L542.25,55.4273938536644L554.3000000000001,54.167391300201416L566.35,54.6839981675148L578.4,53.990995824337006L590.45,53.9154058098793L602.5,53.8902091383934L614.55,53.978397488594055L626.6,54.20520508289337L638.65,53.814600348472595L650.7,53.663401544094086L662.75,53.13419634103775L674.8,53.978397488594055L686.85,53.22240346670151L698.9,53.474407732486725L710.9499999999999,53.44919228553772L723,53.00819420814514L735.05,54.09180128574371L747.1,52.592392802238464L759.15,52.21440517902374L771.2,52.579794466495514L783.25,52.36560398340225L795.3000000000001,51.823800444602966L807.35,52.92000585794449L819.4,52.05060803890228L831.4499999999999,52.79400372505188L843.5,52.17659139633179L855.55,51.37020403146744L867.6,51.16859310865402L879.65,52.126198053359985L891.7,49.9716010093689L903.75,51.798603773117065L915.8,51.45839238166809L927.85,51.35760569572449L939.9,51.67260164022446L951.95,51.00479596853256L964,50.34960740804672L976.0500000000001,51.35760569572449L988.1,49.9716010093689L1000.15,51.21900522708893L1012.1999999999999,51.57179617881775L1024.25,51.38280236721039L1036.3,50.425197422504425L1048.35,49.9716010093689L1060.3999999999999,50.097603142261505L1072.45,50.122799813747406L1084.5,49.39200246334076L1096.55,49.65660506486893L1108.6000000000001,48.91320937871933L1120.65,48.396602511405945L1132.7,49.921207666397095L1144.75,49.3289920091629L1156.8,50.00939601659775L1168.85,49.44239580631256L1180.9,48.98879939317703L1192.95,49.60619294643402L1205,49.70699840784073L1217.05,49.908609330654144L1229.1,49.190391540527344L1241.1499999999999,49.11480152606964L1253.2,48.95100438594818L1265.25,49.74479341506958L1277.3,48.699000120162964L1289.3500000000001,48.4847908616066L1301.4,48.04379278421402L1313.45,48.47219252586365" style="fill: none;" fill="none"></path></g><g><path stroke="rgb(255, 112, 67)" stroke-width="2px" d="M120.5,113.17320817708975L132.54999999999998,111.32100874185568L144.6,111.91320562362671L156.65,110.1113995313645L168.7,110.47680759429937L180.75,110.27519667148596L192.8,107.44019562006002L204.85,108.39780056476599L216.9,106.86059707403189L228.95,106.70939826965338L241,105.51240617036825L253.04999999999998,104.93280762434011L265.09999999999997,104.73119670152664L277.15000000000003,103.86179888248444L289.2,102.4128025174141L301.25,102.58919799327856L313.3,102.81600558757788L325.35,101.77019351720816L337.4,101.54340469837189L349.45,99.4014059901238L361.5,99.59039980173111L373.55,99.84240406751633L385.6,98.96040791273123L397.65000000000003,97.51139277219772L409.7,95.35679572820663L421.75,97.1082084774971L433.8,95.571004986763L445.85,96.42780447006231L457.9,96.64199495315552L469.95,94.34879744052893L482,95.68440878391272L494.05,92.87460440397268L506.09999999999997,92.73600393533712L518.15,92.13120871782309L530.1999999999999,91.52639472484594L542.25,91.36259758472448L554.3000000000001,90.46800309419638L566.35,90.06480002403265L578.4,90.30420595407492L590.45,88.86780792474752L602.5,89.22059887647634L614.55,87.41879278421408L626.6,88.11179512739187L638.65,88.09919679164892L650.7,87.53219658136373L662.75,86.9777947068215L674.8,86.71319210529333L686.85,85.37759953737265L698.9,85.52879834175116L710.9499999999999,84.45780837535864L723,83.8781910538674L735.05,84.04200696945196L747.1,82.3662030100823L759.15,83.96639817953115L771.2,83.26079750061041L783.25,82.45439136028295L795.3000000000001,81.5975918769837L807.35,80.94240331649786L819.4,82.10160040855413L831.4499999999999,80.40059977769857L843.5,80.17379218339926L855.55,79.77060788869863L867.6,79.41779816150671L879.65,78.53580200672155L891.7,78.61139202117926L903.75,78.34680819511419L915.8,77.45219492912298L927.85,77.61599206924444L939.9,77.38920325040823L951.95,77.0363935232163L964,75.86459809541708L976.0500000000001,78.01919513940817L988.1,76.05359190702444L1000.15,75.63780927658087L1012.1999999999999,74.76839268207556L1024.25,75.52440547943121L1036.3,73.72259938716894L1048.35,74.5290055274964L1060.3999999999999,73.77299273014074L1072.45,74.30219793319708L1084.5,73.092607498169L1096.55,74.32739460468298L1108.6000000000001,72.62639397382742L1120.65,72.62639397382742L1132.7,72.00900042057043L1144.75,71.93339163064962L1156.8,71.69400447607046L1168.85,71.05139547586447L1180.9,70.44660025835043L1192.95,71.22779095172888L1205,70.21979266405111L1217.05,70.8624016642571L1229.1,70.66079074144369L1241.1499999999999,69.45120030641561L1253.2,69.85440337657934L1265.25,69.3000015020371L1277.3,68.59440082311636L1289.3500000000001,69.57720243930822L1301.4,68.09039229154592L1313.45,67.88880014419561" style="fill: none;" fill="none"></path></g><g><path stroke="rgb(204, 51, 17)" stroke-width="2px" d="M120.5,315.0503999143839L132.54999999999998,289.3842010349035L144.6,271.07640185952187L156.65,260.4545966684818L168.7,252.46620038151744L180.75,244.11239603161815L192.8,238.0770046412945L204.85,232.5456030070782L216.9,228.19860452413562L228.95,222.93179610371593L241,218.28240001201632L253.04999999999998,215.6364021599293L265.09999999999997,213.1289953887463L277.15000000000003,209.5128036439419L289.2,207.14399734139445L301.25,205.20360016822818L313.3,201.86459997296336L325.35,199.5335980653763L337.4,196.63559594750407L349.45,196.01820239424708L361.5,193.83839929103854L373.55,191.88540378212932L385.6,188.7479957342148L397.65000000000003,188.81100618839267L409.7,184.98060518503192L421.75,184.64039379358294L433.8,183.49379503726962L445.85,181.11240917444235L457.9,180.80999279022222L469.95,178.680592417717L482,177.48360031843188L494.05,175.89600348472598L506.09999999999997,174.20760118961337L518.15,173.1996029019356L530.1999999999999,171.9773953557015L542.25,171.9773953557015L554.3000000000001,171.70019441843036L566.35,168.80220168828967L578.4,167.75640839338308L590.45,167.8445967435837L602.5,165.9546023011208L614.55,164.4930076003075L626.6,164.0646078586579L638.65,161.99819916486743L650.7,161.69580155611044L662.75,159.22620856761935L674.8,159.61679452657705L686.85,157.62599462270742L698.9,157.46219748258596L710.9499999999999,155.6351947188378L723,155.72340184450155L735.05,153.94679242372516L747.1,152.68680864572528L759.15,153.2411917448044L771.2,152.1702017784119L783.25,151.45200276374823L795.3000000000001,150.43140614032748L807.35,148.49099957942965L819.4,147.97439271211627L831.4499999999999,147.3821958303452L843.5,145.68119519948965L855.55,144.13139337301257L867.6,145.3787975907326L879.65,142.73280912637713L891.7,141.11999684572226L903.75,140.4143961668015L915.8,140.27579569816592L927.85,139.64580380916598L939.9,138.07080531120303L951.95,137.08800369501117L964,136.96200156211856L976.0500000000001,134.75699239969256L988.1,134.29079765081408L1000.15,135.56339854002005L1012.1999999999999,132.94260674715045L1024.25,131.5817987322808L1036.3,131.4683949351311L1048.35,130.6998025774956L1060.3999999999999,130.4226016402245L1072.45,128.2932012677193L1084.5,128.04119700193408L1096.55,127.52460891008383L1108.6000000000001,127.60019892454153L1120.65,125.00460380315783L1132.7,125.78579449653628L1144.75,122.459402024746L1156.8,122.71140629053122L1168.85,122.23259443044665L1180.9,121.60260254144674L1192.95,122.28300654888156L1205,120.07799738645554L1217.05,119.46060383319855L1229.1,118.81799483299261L1241.1499999999999,117.09179753065109L1253.2,117.59580606222153L1265.25,117.12959253787994L1277.3,115.94519877433783L1289.3500000000001,115.592407822609L1301.4,112.90860557556152L1313.45,113.68979626893997" style="fill: none;" fill="none"></path></g></g></g></g></g></g><g transform="translate(50, 378)" clip-path="url(#clip_1)"><clipPath id="clip_1"><rect width="1446" height="22"></rect></clipPath><g><g><line x1="0" y1="0" x2="0" y2="5" style="visibility: inherit;" fill="rgb(0, 0, 0)" stroke="rgb(204, 204, 204)" stroke-width="1px"></line><line x1="120.5" y1="0" x2="120.5" y2="5" style="visibility: inherit;" fill="rgb(0, 0, 0)" stroke="rgb(204, 204, 204)" stroke-width="1px"></line><line x1="241" y1="0" x2="241" y2="5" style="visibility: inherit;" fill="rgb(0, 0, 0)" stroke="rgb(204, 204, 204)" stroke-width="1px"></line><line x1="361.5" y1="0" x2="361.5" y2="5" style="visibility: inherit;" fill="rgb(0, 0, 0)" stroke="rgb(204, 204, 204)" stroke-width="1px"></line><line x1="482" y1="0" x2="482" y2="5" style="visibility: inherit;" fill="rgb(0, 0, 0)" stroke="rgb(204, 204, 204)" stroke-width="1px"></line><line x1="602.5" y1="0" x2="602.5" y2="5" style="visibility: inherit;" fill="rgb(0, 0, 0)" stroke="rgb(204, 204, 204)" stroke-width="1px"></line><line x1="723" y1="0" x2="723" y2="5" style="visibility: inherit;" fill="rgb(0, 0, 0)" stroke="rgb(204, 204, 204)" stroke-width="1px"></line><line x1="843.5" y1="0" x2="843.5" y2="5" style="visibility: inherit;" fill="rgb(0, 0, 0)" stroke="rgb(204, 204, 204)" stroke-width="1px"></line><line x1="964" y1="0" x2="964" y2="5" style="visibility: inherit;" fill="rgb(0, 0, 0)" stroke="rgb(204, 204, 204)" stroke-width="1px"></line><line x1="1084.5" y1="0" x2="1084.5" y2="5" style="visibility: inherit;" fill="rgb(0, 0, 0)" stroke="rgb(204, 204, 204)" stroke-width="1px"></line><line x1="1205" y1="0" x2="1205" y2="5" style="visibility: inherit;" fill="rgb(0, 0, 0)" stroke="rgb(204, 204, 204)" stroke-width="1px"></line><line x1="1325.5" y1="0" x2="1325.5" y2="5" style="visibility: inherit;" fill="rgb(0, 0, 0)" stroke="rgb(204, 204, 204)" stroke-width="1px"></line><line x1="1446" y1="0" x2="1446" y2="5" style="visibility: inherit;" fill="rgb(0, 0, 0)" stroke="rgb(204, 204, 204)" stroke-width="1px"></line></g><g transform="translate(0, 8)"><text x="0" y="0" dx="0em" dy="0.95em" style="text-anchor: middle; visibility: hidden; font-family: &quot;Helvetica Neue&quot;, sans-serif; font-size: 12px; font-weight: 200;" fill="rgb(50, 49, 63)" stroke="none" stroke-width="1px">-10</text><text x="120.5" y="0" dx="0em" dy="0.95em" style="text-anchor: middle; visibility: inherit; font-family: &quot;Helvetica Neue&quot;, sans-serif; font-size: 12px; font-weight: 200;" fill="rgb(50, 49, 63)" stroke="none" stroke-width="1px">0</text><text x="241" y="0" dx="0em" dy="0.95em" style="text-anchor: middle; visibility: inherit; font-family: &quot;Helvetica Neue&quot;, sans-serif; font-size: 12px; font-weight: 200;" fill="rgb(50, 49, 63)" stroke="none" stroke-width="1px">10</text><text x="361.5" y="0" dx="0em" dy="0.95em" style="text-anchor: middle; visibility: inherit; font-family: &quot;Helvetica Neue&quot;, sans-serif; font-size: 12px; font-weight: 200;" fill="rgb(50, 49, 63)" stroke="none" stroke-width="1px">20</text><text x="482" y="0" dx="0em" dy="0.95em" style="text-anchor: middle; visibility: inherit; font-family: &quot;Helvetica Neue&quot;, sans-serif; font-size: 12px; font-weight: 200;" fill="rgb(50, 49, 63)" stroke="none" stroke-width="1px">30</text><text x="602.5" y="0" dx="0em" dy="0.95em" style="text-anchor: middle; visibility: inherit; font-family: &quot;Helvetica Neue&quot;, sans-serif; font-size: 12px; font-weight: 200;" fill="rgb(50, 49, 63)" stroke="none" stroke-width="1px">40</text><text x="723" y="0" dx="0em" dy="0.95em" style="text-anchor: middle; visibility: inherit; font-family: &quot;Helvetica Neue&quot;, sans-serif; font-size: 12px; font-weight: 200;" fill="rgb(50, 49, 63)" stroke="none" stroke-width="1px">50</text><text x="843.5" y="0" dx="0em" dy="0.95em" style="text-anchor: middle; visibility: inherit; font-family: &quot;Helvetica Neue&quot;, sans-serif; font-size: 12px; font-weight: 200;" fill="rgb(50, 49, 63)" stroke="none" stroke-width="1px">60</text><text x="964" y="0" dx="0em" dy="0.95em" style="text-anchor: middle; visibility: inherit; font-family: &quot;Helvetica Neue&quot;, sans-serif; font-size: 12px; font-weight: 200;" fill="rgb(50, 49, 63)" stroke="none" stroke-width="1px">70</text><text x="1084.5" y="0" dx="0em" dy="0.95em" style="text-anchor: middle; visibility: inherit; font-family: &quot;Helvetica Neue&quot;, sans-serif; font-size: 12px; font-weight: 200;" fill="rgb(50, 49, 63)" stroke="none" stroke-width="1px">80</text><text x="1205" y="0" dx="0em" dy="0.95em" style="text-anchor: middle; visibility: inherit; font-family: &quot;Helvetica Neue&quot;, sans-serif; font-size: 12px; font-weight: 200;" fill="rgb(50, 49, 63)" stroke="none" stroke-width="1px">90</text><text x="1325.5" y="0" dx="0em" dy="0.95em" style="text-anchor: middle; visibility: inherit; font-family: &quot;Helvetica Neue&quot;, sans-serif; font-size: 12px; font-weight: 200;" fill="rgb(50, 49, 63)" stroke="none" stroke-width="1px">100</text><text x="1446" y="0" dx="0em" dy="0.95em" style="text-anchor: middle; visibility: hidden; font-family: &quot;Helvetica Neue&quot;, sans-serif; font-size: 12px; font-weight: 200;" fill="rgb(50, 49, 63)" stroke="none" stroke-width="1px">110</text></g><line x1="0" y1="0" x2="1446" y2="0" fill="rgb(0, 0, 0)" stroke="rgb(204, 204, 204)" stroke-width="1px"></line></g></g></g></g></svg>