<svg viewBox="0 0 1496 400" xmlns="http://www.w3.org/2000/svg"><g><g><g><g><g><line x1="40" y1="369.1544868380839" x2="35" y2="369.1544868380839" style="visibility: inherit;" fill="rgb(0, 0, 0)" stroke="rgb(204, 204, 204)" stroke-width="1px"></line><line x1="40" y1="313.4519030188267" x2="35" y2="313.4519030188267" style="visibility: inherit;" fill="rgb(0, 0, 0)" stroke="rgb(204, 204, 204)" stroke-width="1px"></line><line x1="40" y1="257.7493191995695" x2="35" y2="257.7493191995695" style="visibility: inherit;" fill="rgb(0, 0, 0)" stroke="rgb(204, 204, 204)" stroke-width="1px"></line><line x1="40" y1="202.04673538031236" x2="35" y2="202.04673538031236" style="visibility: inherit;" fill="rgb(0, 0, 0)" stroke="rgb(204, 204, 204)" stroke-width="1px"></line><line x1="40" y1="146.34415156105516" x2="35" y2="146.34415156105516" style="visibility: inherit;" fill="rgb(0, 0, 0)" stroke="rgb(204, 204, 204)" stroke-width="1px"></line><line x1="40" y1="90.64156774179799" x2="35" y2="90.64156774179799" style="visibility: inherit;" fill="rgb(0, 0, 0)" stroke="rgb(204, 204, 204)" stroke-width="1px"></line><line x1="40" y1="34.938983922540785" x2="35" y2="34.938983922540785" style="visibility: inherit;" fill="rgb(0, 0, 0)" stroke="rgb(204, 204, 204)" stroke-width="1px"></line></g><g transform="translate(30, 0)"><text x="0" y="369.1544868380839" dx="0em" dy="0.3em" style="text-anchor: end; visibility: inherit; font-family: &quot;Helvetica Neue&quot;, sans-serif; font-size: 12px; font-weight: 200;" fill="rgb(50, 49, 63)" stroke="none" stroke-width="1px">0</text><text x="0" y="313.4519030188267" dx="0em" dy="0.3em" style="text-anchor: end; visibility: inherit; font-family: &quot;Helvetica Neue&quot;, sans-serif; font-size: 12px; font-weight: 200;" fill="rgb(50, 49, 63)" stroke="none" stroke-width="1px">0.5</text><text x="0" y="257.7493191995695" dx="0em" dy="0.3em" style="text-anchor: end; visibility: inherit; font-family: &quot;Helvetica Neue&quot;, sans-serif; font-size: 12px; font-weight: 200;" fill="rgb(50, 49, 63)" stroke="none" stroke-width="1px">1</text><text x="0" y="202.04673538031236" dx="0em" dy="0.3em" style="text-anchor: end; visibility: inherit; font-family: &quot;Helvetica Neue&quot;, sans-serif; font-size: 12px; font-weight: 200;" fill="rgb(50, 49, 63)" stroke="none" stroke-width="1px">1.5</text><text x="0" y="146.34415156105516" dx="0em" dy="0.3em" style="text-anchor: end; visibility: inherit; font-family: &quot;Helvetica Neue&quot;, sans-serif; font-size: 12px; font-weight: 200;" fill="rgb(50, 49, 63)" stroke="none" stroke-width="1px">2</text><text x="0" y="90.64156774179799" dx="0em" dy="0.3em" style="text-anchor: end; visibility: inherit; font-family: &quot;Helvetica Neue&quot;, sans-serif; font-size: 12px; font-weight: 200;" fill="rgb(50, 49, 63)" stroke="none" stroke-width="1px">2.5</text><text x="0" y="34.938983922540785" dx="0em" dy="0.3em" style="text-anchor: end; visibility: inherit; font-family: &quot;Helvetica Neue&quot;, sans-serif; font-size: 12px; font-weight: 200;" fill="rgb(50, 49, 63)" stroke="none" stroke-width="1px">3</text></g><line x1="40" y1="0" x2="40" y2="378" fill="rgb(0, 0, 0)" stroke="rgb(204, 204, 204)" stroke-width="1px"></line></g></g><g transform="translate(40, 0)" clip-path="url(#clip_0)"><clipPath id="clip_0"><rect width="1456" height="378"></rect></clipPath><g><g><g><line x1="33.29756032008283" y1="0" x2="33.29756032008283" y2="378" fill="rgb(0, 0, 0)" stroke="rgb(60, 60, 60)" stroke-width="1px" opacity="0.25"></line><line x1="172.96638393411448" y1="0" x2="172.96638393411448" y2="378" fill="rgb(0, 0, 0)" stroke="rgb(60, 60, 60)" stroke-width="1px" opacity="0.25"></line><line x1="312.6352075481461" y1="0" x2="312.6352075481461" y2="378" fill="rgb(0, 0, 0)" stroke="rgb(60, 60, 60)" stroke-width="1px" opacity="0.25"></line><line x1="452.3040311621777" y1="0" x2="452.3040311621777" y2="378" fill="rgb(0, 0, 0)" stroke="rgb(60, 60, 60)" stroke-width="1px" opacity="0.25"></line><line x1="591.9728547762094" y1="0" x2="591.9728547762094" y2="378" fill="rgb(0, 0, 0)" stroke="rgb(60, 60, 60)" stroke-width="1px" opacity="0.25"></line><line x1="731.641678390241" y1="0" x2="731.641678390241" y2="378" fill="rgb(0, 0, 0)" stroke="rgb(60, 60, 60)" stroke-width="1px" opacity="0.25"></line><line x1="871.3105020042727" y1="0" x2="871.3105020042727" y2="378" fill="rgb(0, 0, 0)" stroke="rgb(60, 60, 60)" stroke-width="1px" opacity="0.25"></line><line x1="1010.9793256183042" y1="0" x2="1010.9793256183042" y2="378" fill="rgb(0, 0, 0)" stroke="rgb(60, 60, 60)" stroke-width="1px" opacity="0.25"></line><line x1="1150.6481492323358" y1="0" x2="1150.6481492323358" y2="378" fill="rgb(0, 0, 0)" stroke="rgb(60, 60, 60)" stroke-width="1px" opacity="0.25"></line><line x1="1290.3169728463674" y1="0" x2="1290.3169728463674" y2="378" fill="rgb(0, 0, 0)" stroke="rgb(60, 60, 60)" stroke-width="1px" opacity="0.25"></line><line x1="1429.9857964603991" y1="0" x2="1429.9857964603991" y2="378" fill="rgb(0, 0, 0)" stroke="rgb(60, 60, 60)" stroke-width="1px" opacity="0.25"></line></g><g><line x1="0" y1="369.1544868380839" x2="1456" y2="369.1544868380839" fill="rgb(0, 0, 0)" stroke="rgb(60, 60, 60)" stroke-width="1px" opacity="0.25"></line><line x1="0" y1="313.4519030188267" x2="1456" y2="313.4519030188267" fill="rgb(0, 0, 0)" stroke="rgb(60, 60, 60)" stroke-width="1px" opacity="0.25"></line><line x1="0" y1="257.7493191995695" x2="1456" y2="257.7493191995695" fill="rgb(0, 0, 0)" stroke="rgb(60, 60, 60)" stroke-width="1px" opacity="0.25"></line><line x1="0" y1="202.04673538031236" x2="1456" y2="202.04673538031236" fill="rgb(0, 0, 0)" stroke="rgb(60, 60, 60)" stroke-width="1px" opacity="0.25"></line><line x1="0" y1="146.34415156105516" x2="1456" y2="146.34415156105516" fill="rgb(0, 0, 0)" stroke="rgb(60, 60, 60)" stroke-width="1px" opacity="0.25"></line><line x1="0" y1="90.64156774179799" x2="1456" y2="90.64156774179799" fill="rgb(0, 0, 0)" stroke="rgb(60, 60, 60)" stroke-width="1px" opacity="0.25"></line><line x1="0" y1="34.938983922540785" x2="1456" y2="34.938983922540785" fill="rgb(0, 0, 0)" stroke="rgb(60, 60, 60)" stroke-width="1px" opacity="0.25"></line></g></g></g><g><g><line x1="0" y1="369.1544868380839" x2="1456" y2="369.1544868380839" fill="rgb(0, 0, 0)" stroke="rgb(153, 153, 153)" stroke-width="1.5px"></line></g></g><g><g><line x1="33.29756032008283" y1="0" x2="33.29756032008283" y2="378" fill="rgb(0, 0, 0)" stroke="rgb(153, 153, 153)" stroke-width="1.5px"></line></g></g><g><g><g><g><g><path stroke="rgb(238, 51, 119)" stroke-width="2px" d="M33.29756032008283,348.8757420194577L47.26444268148599,348.5016593455802L61.23132504288916,348.593925833914L75.19820740429232,348.46158368356396L89.16508976569548,347.54796118169355L103.13197212709863,348.13381354102034L117.09885448850181,348.0378002829102L131.065736849905,347.99778604334927L145.03261921130814,348.4487131890686L158.9995015727113,348.0641156548618L172.96638393411448,348.61695095433845L186.93326629551765,347.9794107688015L200.90014865692078,347.94287270820007L214.86703101832396,348.4934934791514L228.8339133797271,348.3709307797329L242.8007957411303,348.6179403538895L256.76767810253347,348.8063396251113L270.7345604639366,348.54269950615213L284.70144282533977,348.65432734845206L298.66832518674295,348.8676126744888L312.6352075481461,348.1828253402569L326.60208990954925,348.46549812004275L340.56897227095243,348.3888810772923L354.5358546323556,348.4053771567197L368.5027369937588,348.02490986761853L382.4696193551619,349.2497450101498L396.4365017165651,349.29551967998276L410.40338407796827,349.6484697090871L424.37026643937145,347.92775282378585L438.3371488007746,349.1647545926755L452.3040311621777,349.2214043572381L466.2709135235809,349.37365070325427L480.23779588498405,349.55480544487756L494.20467824638723,350.0725137401595L508.1715606077904,348.9741673539901L522.1384429691935,349.2115385828558L536.1053253305967,349.6503123827476L550.0722076919999,348.6049187933553L564.039090053403,349.33119118594385L578.0059724148061,349.0274870254329L591.9728547762094,350.17817364389225L605.9397371376125,349.1540438445155L619.9066194990157,349.57676978289743L633.8735018604189,349.4979265911571L647.840384221822,349.47226528535174L661.8072665832252,349.82804738766765L675.7741489446283,349.9804614003863L689.7410313060316,350.0987676896557L703.7079136674347,348.9063586233501L717.6747960288378,350.3613901879357L731.641678390241,349.5317653838559L745.6085607516442,350.59371315499817L759.5754431130473,350.1538320908437L773.5423254744505,350.36758057539515L787.5092078358537,350.2232311650573L801.4760901972569,349.745415924492L815.44297255866,350.31569022108897L829.4098549200631,349.7057984407913L843.3767372814664,350.67919163198263L857.3436196428695,350.3253069855171L871.3105020042727,350.15882391039065L885.2773843656759,350.2044873557774L899.2442667270789,351.1690539741283L913.2111490884822,350.9553818526295L927.1780314498852,350.8790951630849L941.1449138112883,350.7792886533403L955.1117961726916,351.0147906474838L969.0786785340947,350.22073940544976L983.0455608954979,349.9174270206L997.0124432569011,350.81115362713604L1010.9793256183042,350.408615755768L1024.9462079797074,350.6334534836096L1038.9130903411105,351.6122219696772L1052.879972702514,350.6020715891249L1066.846855063917,350.8159196776579L1080.81373742532,351.1994016472703L1094.7806197867233,352.09111293324435L1108.7475021481264,351.35315865367477L1122.7143845095297,350.9359258748808L1136.6812668709326,350.7524686212151L1150.6481492323358,351.1062204623717L1164.615031593739,350.5903000585604L1178.5819139551422,351.50557432645974L1192.5487963165453,351.0083097484112L1206.5156786779485,351.17573740129694L1220.4825610393516,350.71156790621745L1234.449443400755,352.2394498229808L1248.416325762158,351.8689263313809L1262.3832081235612,351.12151797388657L1276.3500904849643,352.5239752368253L1290.3169728463674,352.16912111160514L1304.2838552077708,351.7092279474711L1318.250737569174,351.0254681943165L1332.217619930577,351.9266883404053L1346.1845022919802,350.804845374965L1360.1513846533833,352.0535589120301L1374.1182670147866,352.2657685150651L1388.0851493761897,352.5063685730026L1402.0520317375929,352.6670613366625L1416.018914098996,352.8506729764998" style="fill: none;" fill="none"></path></g><g><path stroke="rgb(187, 187, 187)" stroke-width="2px" d="M33.29756032008283,332.488956381094L47.26444268148599,334.9129387992894L61.23132504288916,334.67677111853527L75.19820740429232,334.39227890601796L89.16508976569548,336.0070320954424L103.13197212709863,335.7347911726679L117.09885448850181,337.5641079392269L131.065736849905,337.45389945366554L145.03261921130814,337.76494608769036L158.9995015727113,338.01813608890825L172.96638393411448,339.15596549340313L186.93326629551765,338.4784957316897L200.90014865692078,339.38519741690186L214.86703101832396,337.8983158191178L228.8339133797271,339.7319155568877L242.8007957411303,339.70209744491484L256.76767810253347,340.17716859578576L270.7345604639366,339.2583351456088L284.70144282533977,340.6683988326128L298.66832518674295,340.8479350095343L312.6352075481461,339.8499097536813L326.60208990954925,341.53805115678443L340.56897227095243,340.8881252161295L354.5358546323556,341.301767271385L368.5027369937588,341.74914851535766L382.4696193551619,341.9768465375389L396.4365017165651,341.2849806803445L410.40338407796827,342.36695715213L424.37026643937145,343.0196305026121L438.3371488007746,341.42151283818924L452.3040311621777,341.06166855348846L466.2709135235809,342.07436215570556L480.23779588498405,343.11792801203467L494.20467824638723,343.93837098907284L508.1715606077904,343.6614204580327L522.1384429691935,343.11425096504547L536.1053253305967,344.0766262958001L550.0722076919999,344.20452942870133L564.039090053403,344.5565016787192L578.0059724148061,344.48602356137104L591.9728547762094,344.3122444945888L605.9397371376125,345.01502860823825L619.9066194990157,345.1923535767672L633.8735018604189,344.53656926192497L647.840384221822,345.27395413873273L661.8072665832252,344.82010527621844L675.7741489446283,344.92292314634153L689.7410313060316,345.1791377884688L703.7079136674347,345.3099061959088L717.6747960288378,345.4178619714186L731.641678390241,345.3387730898569L745.6085607516442,345.08661398984907L759.5754431130473,346.0817241691725L773.5423254744505,346.61063127212446L787.5092078358537,346.2303150490622L801.4760901972569,346.4489922706388L815.44297255866,346.7287549540942L829.4098549200631,346.0120146625494L843.3767372814664,346.82378047271965L857.3436196428695,346.34525140361916L871.3105020042727,346.866640066023L885.2773843656759,347.66112624544354L899.2442667270789,347.49429621644765L913.2111490884822,346.3362438835454L927.1780314498852,348.46335497437093L941.1449138112883,346.9284708976977L955.1117961726916,347.3017218783284L969.0786785340947,347.8065962005749L983.0455608954979,347.26019199818L997.0124432569011,347.0059528350221L1010.9793256183042,348.72576166402405L1024.9462079797074,347.70662700432695L1038.9130903411105,348.7280210143411L1052.879972702514,347.70824058882965L1066.846855063917,347.452525626677L1080.81373742532,347.6816463257295L1094.7806197867233,348.51359024251536L1108.7475021481264,348.464505400359L1122.7143845095297,349.0635652476524L1136.6812668709326,348.8019869311133L1150.6481492323358,349.0619865245432L1164.615031593739,349.3572658482731L1178.5819139551422,349.6440539325674L1192.5487963165453,350.09637221389704L1206.5156786779485,349.02878851745976L1220.4825610393516,349.7093277418744L1234.449443400755,349.1598175553184L1248.416325762158,349.2703530739529L1262.3832081235612,349.3527355271744L1276.3500904849643,349.49382954737865L1290.3169728463674,349.46172386396063L1304.2838552077708,349.40450469663625L1318.250737569174,349.80121739514425L1332.217619930577,349.663528171046L1346.1845022919802,350.32942229002555L1360.1513846533833,349.73941478459767L1374.1182670147866,349.69587124395366L1388.0851493761897,350.242162561836L1402.0520317375929,351.1128457872177L1416.018914098996,350.5069431463851" style="fill: none;" fill="none"></path></g><g><path stroke="rgb(255, 112, 67)" stroke-width="2px" d="M33.29756032008283,274.8162423262885L47.26444268148599,276.9313195960645L61.23132504288916,275.87033798354423L75.19820740429232,278.2387081786525L89.16508976569548,277.8411289255041L103.13197212709863,279.1266975958456L117.09885448850181,281.1385652198374L131.065736849905,281.33573462164344L145.03261921130814,281.8083555145658L158.9995015727113,282.7736110604564L172.96638393411448,283.6946756398223L186.93326629551765,285.3494563493386L200.90014865692078,285.71380107394356L214.86703101832396,286.89792640910866L228.8339133797271,287.0294899883355L242.8007957411303,288.37072400388763L256.76767810253347,288.6699343647599L270.7345604639366,289.1907303834729L284.70144282533977,290.06943006931095L298.66832518674295,291.57815150013784L312.6352075481461,291.59730866594157L326.60208990954925,292.1648853547022L340.56897227095243,292.9334894394914L354.5358546323556,294.5730506606118L368.5027369937588,295.7218033017608L382.4696193551619,294.1882406379108L396.4365017165651,295.66838900653545L410.40338407796827,295.5656375390668L424.37026643937145,295.8977703360066L438.3371488007746,298.03532490430797L452.3040311621777,297.8348353697803L466.2709135235809,299.3632850292391L480.23779588498405,300.6573598796133L494.20467824638723,301.18145611025164L508.1715606077904,301.6778026716027L522.1384429691935,302.02763177594875L536.1053253305967,302.93627241867034L550.0722076919999,302.07884814331237L564.039090053403,302.89046122737744L578.0059724148061,304.4738989249716L591.9728547762094,303.9191445887819L605.9397371376125,305.8429888540581L619.9066194990157,305.2933740833214L633.8735018604189,305.81541183167235L647.840384221822,306.4614233358485L661.8072665832252,307.174016781624L675.7741489446283,307.36924722592056L689.7410313060316,308.5619252229766L703.7079136674347,308.79406890287214L717.6747960288378,309.61633297270816L731.641678390241,310.3076111664108L745.6085607516442,309.8838493466198L759.5754431130473,311.2835243383378L773.5423254744505,310.7360742941357L787.5092078358537,311.3768134275499L801.4760901972569,312.1885194753311L815.44297255866,312.26926510312086L829.4098549200631,314.10596916498554L843.3767372814664,312.8365097786093L857.3436196428695,314.24580983508736L871.3105020042727,314.238801034912L885.2773843656759,314.8813662413231L899.2442667270789,315.01334151700746L913.2111490884822,317.1099488884531L927.1780314498852,316.41379341978234L941.1449138112883,316.35891494602674L955.1117961726916,317.545829192678L969.0786785340947,317.0527762029868L983.0455608954979,317.24312937231537L997.0124432569011,318.2762783122304L1010.9793256183042,319.51277874107905L1024.9462079797074,318.2253541165462L1038.9130903411105,318.94519209192026L1052.879972702514,320.2727405203939L1066.846855063917,321.0658770658631L1080.81373742532,319.73253168565753L1094.7806197867233,321.5240553814464L1108.7475021481264,321.09604711190445L1122.7143845095297,321.93673459821264L1136.6812668709326,321.31421303304194L1150.6481492323358,321.95552986954976L1164.615031593739,321.6931829422856L1178.5819139551422,323.2510456575252L1192.5487963165453,322.9717328520536L1206.5156786779485,323.37720406068127L1220.4825610393516,323.05753836211113L1234.449443400755,323.9024424169758L1248.416325762158,324.0622570055309L1262.3832081235612,325.18807084970626L1276.3500904849643,324.871519435629L1290.3169728463674,325.6848955101692L1304.2838552077708,325.51086743343285L1318.250737569174,325.81862049579786L1332.217619930577,326.94865090852966L1346.1845022919802,326.38875700688686L1360.1513846533833,327.21728948730123L1374.1182670147866,327.6593651591847L1388.0851493761897,326.9388299559391L1402.0520317375929,327.37877078248255L1416.018914098996,328.80985754987984" style="fill: none;" fill="none"></path></g><g><path stroke="rgb(204, 51, 17)" stroke-width="2px" d="M33.29756032008283,-22.813635766475898L47.26444268148599,19.229470497993702L61.23132504288916,44.88126744326644L75.19820740429232,62.739650448430154L89.16508976569548,75.14990814591255L103.13197212709863,88.01284601919133L117.09885448850181,95.9913374377341L131.065736849905,104.99532489026865L145.03261921130814,112.38442634806978L158.9995015727113,119.4926180165603L172.96638393411448,125.19665915442397L186.93326629551765,130.0327644767331L200.90014865692078,134.5700844151584L214.86703101832396,139.22012949974803L228.8339133797271,143.3638145026982L242.8007957411303,147.16042611146136L256.76767810253347,150.91396895855965L270.7345604639366,153.7625631505228L284.70144282533977,157.2983451326756L298.66832518674295,159.65181457212924L312.6352075481461,163.57752622163974L326.60208990954925,166.03196753742327L340.56897227095243,168.6858824271216L354.5358546323556,169.46097405124883L368.5027369937588,174.02261064172723L382.4696193551619,175.77921318155012L396.4365017165651,177.90217244640726L410.40338407796827,180.67041942650724L424.37026643937145,182.01502005663903L438.3371488007746,183.298198231421L452.3040311621777,186.33870937522454L466.2709135235809,188.44506797647355L480.23779588498405,188.89541077883388L494.20467824638723,192.18303276084202L508.1715606077904,193.59472663301236L522.1384429691935,194.19447540784546L536.1053253305967,196.73190676113853L550.0722076919999,199.02564037266484L564.039090053403,200.60971553574154L578.0059724148061,200.9647838095223L591.9728547762094,203.18098568173335L605.9397371376125,205.03701955630328L619.9066194990157,205.2792962812652L633.8735018604189,207.34598593675636L647.840384221822,208.86530523123065L661.8072665832252,211.99204686208006L675.7741489446283,211.6661691951878L689.7410313060316,213.67085205197L703.7079136674347,215.1576738873651L717.6747960288378,217.13539726644777L731.641678390241,218.05038600293307L745.6085607516442,219.5706482151003L759.5754431130473,221.27784718002553L773.5423254744505,221.87212437613343L787.5092078358537,222.8859069818832L801.4760901972569,223.3040577773747L815.44297255866,225.9211855965175L829.4098549200631,228.15556851551216L843.3767372814664,228.72215580472175L857.3436196428695,229.89756247135992L871.3105020042727,230.7246340933768L885.2773843656759,233.04923165868325L899.2442667270789,232.89334478713783L913.2111490884822,234.70832854073768L927.1780314498852,235.98697805448728L941.1449138112883,238.00379931649974L955.1117961726916,237.6328076861861L969.0786785340947,239.46838954319088L983.0455608954979,242.4210499751804L997.0124432569011,241.9538143375325L1010.9793256183042,243.6467898538783L1024.9462079797074,245.00034156182764L1038.9130903411105,246.48924844057188L1052.879972702514,246.01380543483614L1066.846855063917,249.41938509217798L1080.81373742532,250.22612422140767L1094.7806197867233,250.1290036990349L1108.7475021481264,252.44458378386943L1122.7143845095297,253.26659552361855L1136.6812668709326,255.74992199408015L1150.6481492323358,254.85749687957093L1164.615031593739,256.6795193145406L1178.5819139551422,257.32899039701266L1192.5487963165453,258.8900902416558L1206.5156786779485,258.73231089445903L1220.4825610393516,261.26006074073587L1234.449443400755,261.6791810149821L1248.416325762158,262.53942076288797L1262.3832081235612,263.6293340119445L1276.3500904849643,263.688458935451L1290.3169728463674,264.71094028893145L1304.2838552077708,266.8889008724549L1318.250737569174,267.63384569146984L1332.217619930577,269.1694535570764L1346.1845022919802,269.1785507207336L1360.1513846533833,269.28704601781067L1374.1182670147866,271.4092350118764L1388.0851493761897,271.4062668132233L1402.0520317375929,273.91370408750925L1416.018914098996,274.4133840621128" style="fill: none;" fill="none"></path></g></g></g></g></g></g><g transform="translate(40, 378)" clip-path="url(#clip_1)"><clipPath id="clip_1"><rect width="1456" height="22"></rect></clipPath><g><g><line x1="33.29756032008283" y1="0" x2="33.29756032008283" y2="5" style="visibility: inherit;" fill="rgb(0, 0, 0)" stroke="rgb(204, 204, 204)" stroke-width="1px"></line><line x1="172.96638393411448" y1="0" x2="172.96638393411448" y2="5" style="visibility: inherit;" fill="rgb(0, 0, 0)" stroke="rgb(204, 204, 204)" stroke-width="1px"></line><line x1="312.6352075481461" y1="0" x2="312.6352075481461" y2="5" style="visibility: inherit;" fill="rgb(0, 0, 0)" stroke="rgb(204, 204, 204)" stroke-width="1px"></line><line x1="452.3040311621777" y1="0" x2="452.3040311621777" y2="5" style="visibility: inherit;" fill="rgb(0, 0, 0)" stroke="rgb(204, 204, 204)" stroke-width="1px"></line><line x1="591.9728547762094" y1="0" x2="591.9728547762094" y2="5" style="visibility: inherit;" fill="rgb(0, 0, 0)" stroke="rgb(204, 204, 204)" stroke-width="1px"></line><line x1="731.641678390241" y1="0" x2="731.641678390241" y2="5" style="visibility: inherit;" fill="rgb(0, 0, 0)" stroke="rgb(204, 204, 204)" stroke-width="1px"></line><line x1="871.3105020042727" y1="0" x2="871.3105020042727" y2="5" style="visibility: inherit;" fill="rgb(0, 0, 0)" stroke="rgb(204, 204, 204)" stroke-width="1px"></line><line x1="1010.9793256183042" y1="0" x2="1010.9793256183042" y2="5" style="visibility: inherit;" fill="rgb(0, 0, 0)" stroke="rgb(204, 204, 204)" stroke-width="1px"></line><line x1="1150.6481492323358" y1="0" x2="1150.6481492323358" y2="5" style="visibility: inherit;" fill="rgb(0, 0, 0)" stroke="rgb(204, 204, 204)" stroke-width="1px"></line><line x1="1290.3169728463674" y1="0" x2="1290.3169728463674" y2="5" style="visibility: inherit;" fill="rgb(0, 0, 0)" stroke="rgb(204, 204, 204)" stroke-width="1px"></line><line x1="1429.9857964603991" y1="0" x2="1429.9857964603991" y2="5" style="visibility: inherit;" fill="rgb(0, 0, 0)" stroke="rgb(204, 204, 204)" stroke-width="1px"></line></g><g transform="translate(0, 8)"><text x="33.29756032008283" y="0" dx="0em" dy="0.95em" style="text-anchor: middle; visibility: inherit; font-family: &quot;Helvetica Neue&quot;, sans-serif; font-size: 12px; font-weight: 200;" fill="rgb(50, 49, 63)" stroke="none" stroke-width="1px">0</text><text x="172.96638393411448" y="0" dx="0em" dy="0.95em" style="text-anchor: middle; visibility: inherit; font-family: &quot;Helvetica Neue&quot;, sans-serif; font-size: 12px; font-weight: 200;" fill="rgb(50, 49, 63)" stroke="none" stroke-width="1px">10</text><text x="312.6352075481461" y="0" dx="0em" dy="0.95em" style="text-anchor: middle; visibility: inherit; font-family: &quot;Helvetica Neue&quot;, sans-serif; font-size: 12px; font-weight: 200;" fill="rgb(50, 49, 63)" stroke="none" stroke-width="1px">20</text><text x="452.3040311621777" y="0" dx="0em" dy="0.95em" style="text-anchor: middle; visibility: inherit; font-family: &quot;Helvetica Neue&quot;, sans-serif; font-size: 12px; font-weight: 200;" fill="rgb(50, 49, 63)" stroke="none" stroke-width="1px">30</text><text x="591.9728547762094" y="0" dx="0em" dy="0.95em" style="text-anchor: middle; visibility: inherit; font-family: &quot;Helvetica Neue&quot;, sans-serif; font-size: 12px; font-weight: 200;" fill="rgb(50, 49, 63)" stroke="none" stroke-width="1px">40</text><text x="731.641678390241" y="0" dx="0em" dy="0.95em" style="text-anchor: middle; visibility: inherit; font-family: &quot;Helvetica Neue&quot;, sans-serif; font-size: 12px; font-weight: 200;" fill="rgb(50, 49, 63)" stroke="none" stroke-width="1px">50</text><text x="871.3105020042727" y="0" dx="0em" dy="0.95em" style="text-anchor: middle; visibility: inherit; font-family: &quot;Helvetica Neue&quot;, sans-serif; font-size: 12px; font-weight: 200;" fill="rgb(50, 49, 63)" stroke="none" stroke-width="1px">60</text><text x="1010.9793256183042" y="0" dx="0em" dy="0.95em" style="text-anchor: middle; visibility: inherit; font-family: &quot;Helvetica Neue&quot;, sans-serif; font-size: 12px; font-weight: 200;" fill="rgb(50, 49, 63)" stroke="none" stroke-width="1px">70</text><text x="1150.6481492323358" y="0" dx="0em" dy="0.95em" style="text-anchor: middle; visibility: inherit; font-family: &quot;Helvetica Neue&quot;, sans-serif; font-size: 12px; font-weight: 200;" fill="rgb(50, 49, 63)" stroke="none" stroke-width="1px">80</text><text x="1290.3169728463674" y="0" dx="0em" dy="0.95em" style="text-anchor: middle; visibility: inherit; font-family: &quot;Helvetica Neue&quot;, sans-serif; font-size: 12px; font-weight: 200;" fill="rgb(50, 49, 63)" stroke="none" stroke-width="1px">90</text><text x="1429.9857964603991" y="0" dx="0em" dy="0.95em" style="text-anchor: middle; visibility: inherit; font-family: &quot;Helvetica Neue&quot;, sans-serif; font-size: 12px; font-weight: 200;" fill="rgb(50, 49, 63)" stroke="none" stroke-width="1px">100</text></g><line x1="0" y1="0" x2="1456" y2="0" fill="rgb(0, 0, 0)" stroke="rgb(204, 204, 204)" stroke-width="1px"></line></g></g></g></g></svg>